<svg width="126" height="127" viewBox="0 0 126 127" fill="none" xmlns="http://www.w3.org/2000/svg">
<path opacity="0.4" d="M92.0325 41.2925C91.665 41.24 91.2975 41.24 90.93 41.2925C82.7925 41.03 76.335 34.3625 76.335 26.1725C76.335 17.825 83.1075 11 91.5075 11C99.855 11 106.68 17.7725 106.68 26.1725C106.628 34.3625 100.17 41.03 92.0325 41.2925Z" fill="#46BA3C"/>
<path opacity="0.4" d="M109.148 77.6751C103.268 81.6126 95.025 83.0826 87.4125 82.0851C89.4075 77.7801 90.4575 73.0027 90.51 67.9627C90.51 62.7127 89.355 57.7252 87.15 53.3677C94.92 52.3177 103.163 53.7876 109.095 57.7251C117.39 63.1851 117.39 72.1626 109.148 77.6751Z" fill="#46BA3C"/>
<path opacity="0.4" d="M33.81 41.2925C34.1775 41.24 34.545 41.24 34.9125 41.2925C43.05 41.03 49.5075 34.3625 49.5075 26.1725C49.5075 17.825 42.735 11 34.335 11C25.9875 11 19.1625 17.7725 19.1625 26.1725C19.215 34.3625 25.6725 41.03 33.81 41.2925Z" fill="#46BA3C"/>
<path opacity="0.4" d="M34.3875 67.9627C34.3875 73.0552 35.49 77.8852 37.485 82.2427C30.0825 83.0302 22.365 81.4552 16.695 77.7277C8.4 72.2152 8.4 63.2376 16.695 57.7251C22.3125 53.9451 30.24 52.4227 37.695 53.2627C35.5425 57.6727 34.3875 62.6602 34.3875 67.9627Z" fill="#46BA3C"/>
<path d="M63.63 83.8175C63.21 83.765 62.7375 83.765 62.265 83.8175C52.605 83.5025 44.8875 75.575 44.8875 65.81C44.8875 55.835 52.92 47.75 62.9475 47.75C72.9225 47.75 81.0075 55.835 81.0075 65.81C81.0075 75.575 73.3425 83.5025 63.63 83.8175Z" fill="#46BA3C"/>
<path d="M46.5675 94.6854C38.64 99.9879 38.64 108.703 46.5675 113.953C55.5975 119.99 70.4025 119.99 79.4325 113.953C87.36 108.65 87.36 99.9354 79.4325 94.6854C70.455 88.6479 55.65 88.6479 46.5675 94.6854Z" fill="#46BA3C"/>
</svg>
