<svg width="126" height="126" viewBox="0 0 126 126" fill="none" xmlns="http://www.w3.org/2000/svg">
<path opacity="0.4" d="M85.26 19.1621H40.74C27.7725 19.1621 17.2725 29.7146 17.2725 42.6296V92.0321C17.2725 104.947 27.825 115.5 40.74 115.5H85.2075C98.175 115.5 108.675 104.947 108.675 92.0321V42.6296C108.727 29.6621 98.175 19.1621 85.26 19.1621Z" fill="#46BA3C"/>
<path d="M75.3377 10.5H50.6627C45.2027 10.5 40.7402 14.91 40.7402 20.37V25.305C40.7402 30.765 45.1502 35.175 50.6102 35.175H75.3377C80.7977 35.175 85.2077 30.765 85.2077 25.305V20.37C85.2602 14.91 80.7977 10.5 75.3377 10.5Z" fill="#46BA3C"/>
<path d="M78.75 67.9873H42C39.8475 67.9873 38.0625 66.2023 38.0625 64.0498C38.0625 61.8973 39.8475 60.1123 42 60.1123H78.75C80.9025 60.1123 82.6875 61.8973 82.6875 64.0498C82.6875 66.2023 80.9025 67.9873 78.75 67.9873Z" fill="#46BA3C"/>
<path d="M64.995 88.9873H42C39.8475 88.9873 38.0625 87.2023 38.0625 85.0498C38.0625 82.8973 39.8475 81.1123 42 81.1123H64.995C67.1475 81.1123 68.9325 82.8973 68.9325 85.0498C68.9325 87.2023 67.1475 88.9873 64.995 88.9873Z" fill="#46BA3C"/>
</svg>
