<svg width="60" height="60" viewBox="0 0 60 60" fill="none" xmlns="http://www.w3.org/2000/svg">
<path opacity="0.3" d="M37 0C49.7025 0 60 10.2975 60 23V37C60 49.7025 49.7025 60 37 60H23C10.2975 60 0 49.7025 0 37V23C0 10.2975 10.2975 0 23 0H37Z" fill="#FF9066"/>
<path opacity="0.78" fill-rule="evenodd" clip-rule="evenodd" d="M28.6312 24.4001C28.6512 24.1396 28.8684 23.9385 29.1297 23.9385H29.5475C29.8044 23.9385 30.0195 24.1331 30.045 24.3887L30.6667 30.6051L35.0814 33.1278C35.2372 33.2169 35.3333 33.3825 35.3333 33.562V33.9505C35.3333 34.2802 35.0199 34.5196 34.7018 34.4329L28.3987 32.7139C28.1673 32.6508 28.0133 32.4323 28.0317 32.1931L28.6312 24.4001Z" fill="#FF9066"/>
<path opacity="0.901274" d="M21.8525 15.7811C21.9479 15.3815 22.4575 15.2605 22.7217 15.5751L24.5205 17.7196C26.2036 17.0029 28.0552 16.6044 30 16.6044L30.3613 16.6093C37.9262 16.8009 43.9998 22.9934 44 30.6044C44 38.3364 37.732 44.6044 30 44.6044C22.268 44.6044 16 38.3364 16 30.6044C16 29.2913 16.1805 28.0204 16.5186 26.8153L19.0859 27.536C18.8086 28.5249 18.667 29.5539 18.667 30.6044C18.667 36.8636 23.7408 41.9384 30 41.9384C36.2592 41.9384 41.333 36.8636 41.333 30.6044C41.3328 24.5408 36.5712 19.5894 30.583 19.286L30 19.2714C28.7318 19.2714 27.4968 19.4798 26.332 19.8778L28.1328 22.0243C28.3974 22.3396 28.1892 22.8213 27.7783 22.8446L20.7334 23.244C20.3992 23.2629 20.1411 22.9544 20.2188 22.6288L21.8525 15.7811Z" fill="#FF9066"/>
</svg>
