<svg width="40" height="40" viewBox="0 0 40 40" fill="none" xmlns="http://www.w3.org/2000/svg">
<path d="M30 11.933C29.9 11.9163 29.7834 11.9163 29.6834 11.933C27.3834 11.8497 25.55 9.96634 25.55 7.63301C25.55 5.24968 27.4667 3.33301 29.85 3.33301C32.2334 3.33301 34.15 5.26634 34.15 7.63301C34.1334 9.96634 32.3 11.8497 30 11.933Z" stroke="#7F56D9" stroke-width="1.5" stroke-linecap="round" stroke-linejoin="round"/>
<path d="M28.2834 24.0666C30.5667 24.4499 33.0834 24.0499 34.8501 22.8666C37.2001 21.2999 37.2001 18.7333 34.8501 17.1666C33.0667 15.9833 30.5167 15.5833 28.2334 15.9833" stroke="#7F56D9" stroke-width="1.5" stroke-linecap="round" stroke-linejoin="round"/>
<path d="M9.95005 11.933C10.0501 11.9163 10.1667 11.9163 10.2667 11.933C12.5667 11.8497 14.4 9.96634 14.4 7.63301C14.4 5.24968 12.4834 3.33301 10.1001 3.33301C7.71672 3.33301 5.80005 5.26634 5.80005 7.63301C5.81672 9.96634 7.65005 11.8497 9.95005 11.933Z" stroke="#7F56D9" stroke-width="1.5" stroke-linecap="round" stroke-linejoin="round"/>
<path d="M11.6667 24.0666C9.38336 24.4499 6.86669 24.0499 5.10002 22.8666C2.75002 21.2999 2.75002 18.7333 5.10002 17.1666C6.88336 15.9833 9.43335 15.5833 11.7167 15.9833" stroke="#7F56D9" stroke-width="1.5" stroke-linecap="round" stroke-linejoin="round"/>
<path d="M19.9999 24.3832C19.8999 24.3665 19.7833 24.3665 19.6833 24.3832C17.3833 24.2999 15.5499 22.4165 15.5499 20.0832C15.5499 17.6999 17.4666 15.7832 19.8499 15.7832C22.2333 15.7832 24.1499 17.7165 24.1499 20.0832C24.1333 22.4165 22.2999 24.3165 19.9999 24.3832Z" stroke="#7F56D9" stroke-width="1.5" stroke-linecap="round" stroke-linejoin="round"/>
<path d="M15.15 29.6336C12.8 31.2003 12.8 33.7669 15.15 35.3336C17.8166 37.1169 22.1833 37.1169 24.85 35.3336C27.2 33.7669 27.2 31.2003 24.85 29.6336C22.2 27.8669 17.8166 27.8669 15.15 29.6336Z" stroke="#7F56D9" stroke-width="1.5" stroke-linecap="round" stroke-linejoin="round"/>
</svg>
