<svg width="60" height="60" viewBox="0 0 60 60" fill="none" xmlns="http://www.w3.org/2000/svg">
<path opacity="0.21" d="M37 0C49.7025 0 60 10.2975 60 23V37C60 49.7025 49.7025 60 37 60H23C10.2975 60 0 49.7025 0 37V23C0 10.2975 10.2975 0 23 0H37Z" fill="#FEC53D"/>
<path d="M24.856 41.896L22.232 40.36L35.416 17.544L38.008 19.08L24.856 41.896ZM22.104 31.912C20.9093 31.912 19.8853 31.6347 19.032 31.08C18.1787 30.5253 17.528 29.736 17.08 28.712C16.632 27.6667 16.408 26.4293 16.408 25C16.408 22.8667 16.9093 21.192 17.912 19.976C18.9147 18.7387 20.312 18.12 22.104 18.12C23.2987 18.12 24.3227 18.3973 25.176 18.952C26.0293 19.5067 26.68 20.296 27.128 21.32C27.576 22.344 27.8 23.5707 27.8 25C27.8 26.4293 27.576 27.6667 27.128 28.712C26.68 29.736 26.0293 30.5253 25.176 31.08C24.3227 31.6347 23.2987 31.912 22.104 31.912ZM22.104 29.224C22.872 29.224 23.4693 28.8827 23.896 28.2C24.3227 27.496 24.536 26.4293 24.536 25C24.536 23.5707 24.3227 22.5147 23.896 21.832C23.4693 21.1493 22.872 20.808 22.104 20.808C21.336 20.808 20.7387 21.1493 20.312 21.832C19.8853 22.4933 19.672 23.5493 19.672 25C19.672 26.4507 19.8853 27.5173 20.312 28.2C20.7387 28.8827 21.336 29.224 22.104 29.224ZM38.168 41.32C36.9733 41.32 35.9493 41.0427 35.096 40.488C34.2427 39.9333 33.592 39.144 33.144 38.12C32.696 37.0747 32.472 35.8373 32.472 34.408C32.472 32.2747 32.9733 30.6 33.976 29.384C34.9787 28.1467 36.376 27.528 38.168 27.528C39.3627 27.528 40.3867 27.8053 41.24 28.36C42.0933 28.9147 42.744 29.704 43.192 30.728C43.64 31.752 43.864 32.9787 43.864 34.408C43.864 35.8373 43.64 37.0747 43.192 38.12C42.744 39.144 42.0933 39.9333 41.24 40.488C40.3867 41.0427 39.3627 41.32 38.168 41.32ZM38.168 38.632C38.936 38.632 39.5333 38.2907 39.96 37.608C40.3867 36.904 40.6 35.8373 40.6 34.408C40.6 32.9787 40.3867 31.9227 39.96 31.24C39.5333 30.5573 38.936 30.216 38.168 30.216C37.4 30.216 36.8027 30.5573 36.376 31.24C35.9493 31.9013 35.736 32.9573 35.736 34.408C35.736 35.8587 35.9493 36.9253 36.376 37.608C36.8027 38.2907 37.4 38.632 38.168 38.632Z" fill="#FEAB4F"/>
</svg>
